<mxfile host="app.diagrams.net" agent="Mozilla/5.0 (Windows NT 10.0; Win64; x64) AppleWebKit/537.36 (KHTML, like Gecko) Chrome/134.0.0.0 Safari/537.36" version="26.1.3">
  <diagram name="Página-1" id="EEH5VrB2mAuNYLlx2_Z8">
    <mxGraphModel grid="1" page="1" gridSize="10" guides="1" tooltips="1" connect="1" arrows="1" fold="1" pageScale="1" pageWidth="1169" pageHeight="827" math="0" shadow="0">
      <root>
        <mxCell id="0" />
        <mxCell id="1" parent="0" />
        <mxCell id="2" value="d_codigo_bapin" style="shape=table;startSize=25;container=1;collapsible=0;childLayout=tableLayout;fixedRows=1;rowLines=1;fontStyle=1;align=center;resizeLast=1;" vertex="1" parent="1">
          <mxGeometry x="100.13999999999999" y="79" width="280" height="91" as="geometry" />
        </mxCell>
        <mxCell id="ZM4B9XLO-ZA06SH2tsMt-46" style="shape=tableRow;horizontal=0;startSize=0;swimlaneHead=0;swimlaneBody=0;fillColor=none;collapsible=0;dropTarget=0;points=[[0,0.5],[1,0.5]];portConstraint=eastwest;top=0;left=0;right=0;bottom=0;" vertex="1" parent="2">
          <mxGeometry y="25" width="280" height="22" as="geometry" />
        </mxCell>
        <mxCell id="ZM4B9XLO-ZA06SH2tsMt-47" value="PK   " style="shape=partialRectangle;connectable=0;fillColor=none;top=0;left=0;bottom=0;right=0;align=left;spacingLeft=2;overflow=hidden;fontSize=11;" vertex="1" parent="ZM4B9XLO-ZA06SH2tsMt-46">
          <mxGeometry width="50" height="22" as="geometry">
            <mxRectangle width="50" height="22" as="alternateBounds" />
          </mxGeometry>
        </mxCell>
        <mxCell id="ZM4B9XLO-ZA06SH2tsMt-48" value="Codigo_bapin_id" style="shape=partialRectangle;connectable=0;fillColor=none;top=0;left=0;bottom=0;right=0;align=left;spacingLeft=2;overflow=hidden;fontSize=11;" vertex="1" parent="ZM4B9XLO-ZA06SH2tsMt-46">
          <mxGeometry x="50" width="230" height="22" as="geometry">
            <mxRectangle width="230" height="22" as="alternateBounds" />
          </mxGeometry>
        </mxCell>
        <mxCell id="3" style="shape=tableRow;horizontal=0;startSize=0;swimlaneHead=0;swimlaneBody=0;fillColor=none;collapsible=0;dropTarget=0;points=[[0,0.5],[1,0.5]];portConstraint=eastwest;top=0;left=0;right=0;bottom=0;" vertex="1" parent="2">
          <mxGeometry y="47" width="280" height="22" as="geometry" />
        </mxCell>
        <mxCell id="4" value="Varchar" style="shape=partialRectangle;connectable=0;fillColor=none;top=0;left=0;bottom=0;right=0;align=left;spacingLeft=2;overflow=hidden;fontSize=11;" vertex="1" parent="3">
          <mxGeometry width="50" height="22" as="geometry">
            <mxRectangle width="50" height="22" as="alternateBounds" />
          </mxGeometry>
        </mxCell>
        <mxCell id="5" value="Codigo_bapin_desc" style="shape=partialRectangle;connectable=0;fillColor=none;top=0;left=0;bottom=0;right=0;align=left;spacingLeft=2;overflow=hidden;fontSize=11;" vertex="1" parent="3">
          <mxGeometry x="50" width="230" height="22" as="geometry">
            <mxRectangle width="230" height="22" as="alternateBounds" />
          </mxGeometry>
        </mxCell>
        <mxCell id="6" style="shape=tableRow;horizontal=0;startSize=0;swimlaneHead=0;swimlaneBody=0;fillColor=none;collapsible=0;dropTarget=0;points=[[0,0.5],[1,0.5]];portConstraint=eastwest;top=0;left=0;right=0;bottom=0;" vertex="1" parent="2">
          <mxGeometry y="69" width="280" height="22" as="geometry" />
        </mxCell>
        <mxCell id="7" value="Varchar" style="shape=partialRectangle;connectable=0;fillColor=none;top=0;left=0;bottom=0;right=0;align=left;spacingLeft=2;overflow=hidden;fontSize=11;" vertex="1" parent="6">
          <mxGeometry width="50" height="22" as="geometry">
            <mxRectangle width="50" height="22" as="alternateBounds" />
          </mxGeometry>
        </mxCell>
        <mxCell id="8" value="ultima_actualizacion_fecha" style="shape=partialRectangle;connectable=0;fillColor=none;top=0;left=0;bottom=0;right=0;align=left;spacingLeft=2;overflow=hidden;fontSize=11;" vertex="1" parent="6">
          <mxGeometry x="50" width="230" height="22" as="geometry">
            <mxRectangle width="230" height="22" as="alternateBounds" />
          </mxGeometry>
        </mxCell>
        <mxCell id="ZM4B9XLO-ZA06SH2tsMt-205" value="&lt;font style=&quot;font-size: 19px;&quot;&gt;Diagrama E/R -&amp;nbsp;Lácteos - Presupuesto de la Administración Pública Nacional&lt;/font&gt;" style="rounded=1;whiteSpace=wrap;html=1;" vertex="1" parent="1">
          <mxGeometry x="250" y="8" width="710" height="60" as="geometry" />
        </mxCell>
        <mxCell id="mkAhLoMsAeQ2sZZbWRm_-52" value="d_prestamo_externo " style="shape=table;startSize=25;container=1;collapsible=0;childLayout=tableLayout;fixedRows=1;rowLines=1;fontStyle=1;align=center;resizeLast=1;" vertex="1" parent="1">
          <mxGeometry x="110.13999999999999" y="203" width="280" height="113" as="geometry" />
        </mxCell>
        <mxCell id="mkAhLoMsAeQ2sZZbWRm_-53" style="shape=tableRow;horizontal=0;startSize=0;swimlaneHead=0;swimlaneBody=0;fillColor=none;collapsible=0;dropTarget=0;points=[[0,0.5],[1,0.5]];portConstraint=eastwest;top=0;left=0;right=0;bottom=0;" vertex="1" parent="mkAhLoMsAeQ2sZZbWRm_-52">
          <mxGeometry y="25" width="280" height="22" as="geometry" />
        </mxCell>
        <mxCell id="mkAhLoMsAeQ2sZZbWRm_-54" value="PK   " style="shape=partialRectangle;connectable=0;fillColor=none;top=0;left=0;bottom=0;right=0;align=left;spacingLeft=2;overflow=hidden;fontSize=11;" vertex="1" parent="mkAhLoMsAeQ2sZZbWRm_-53">
          <mxGeometry width="50" height="22" as="geometry">
            <mxRectangle width="50" height="22" as="alternateBounds" />
          </mxGeometry>
        </mxCell>
        <mxCell id="mkAhLoMsAeQ2sZZbWRm_-55" value="prestamo_externo_id " style="shape=partialRectangle;connectable=0;fillColor=none;top=0;left=0;bottom=0;right=0;align=left;spacingLeft=2;overflow=hidden;fontSize=11;" vertex="1" parent="mkAhLoMsAeQ2sZZbWRm_-53">
          <mxGeometry x="50" width="230" height="22" as="geometry">
            <mxRectangle width="230" height="22" as="alternateBounds" />
          </mxGeometry>
        </mxCell>
        <mxCell id="mkAhLoMsAeQ2sZZbWRm_-56" style="shape=tableRow;horizontal=0;startSize=0;swimlaneHead=0;swimlaneBody=0;fillColor=none;collapsible=0;dropTarget=0;points=[[0,0.5],[1,0.5]];portConstraint=eastwest;top=0;left=0;right=0;bottom=0;" vertex="1" parent="mkAhLoMsAeQ2sZZbWRm_-52">
          <mxGeometry y="47" width="280" height="22" as="geometry" />
        </mxCell>
        <mxCell id="mkAhLoMsAeQ2sZZbWRm_-57" value="Varchar" style="shape=partialRectangle;connectable=0;fillColor=none;top=0;left=0;bottom=0;right=0;align=left;spacingLeft=2;overflow=hidden;fontSize=11;" vertex="1" parent="mkAhLoMsAeQ2sZZbWRm_-56">
          <mxGeometry width="50" height="22" as="geometry">
            <mxRectangle width="50" height="22" as="alternateBounds" />
          </mxGeometry>
        </mxCell>
        <mxCell id="mkAhLoMsAeQ2sZZbWRm_-58" value="prestamo_externo_desc " style="shape=partialRectangle;connectable=0;fillColor=none;top=0;left=0;bottom=0;right=0;align=left;spacingLeft=2;overflow=hidden;fontSize=11;" vertex="1" parent="mkAhLoMsAeQ2sZZbWRm_-56">
          <mxGeometry x="50" width="230" height="22" as="geometry">
            <mxRectangle width="230" height="22" as="alternateBounds" />
          </mxGeometry>
        </mxCell>
        <mxCell id="mkAhLoMsAeQ2sZZbWRm_-59" style="shape=tableRow;horizontal=0;startSize=0;swimlaneHead=0;swimlaneBody=0;fillColor=none;collapsible=0;dropTarget=0;points=[[0,0.5],[1,0.5]];portConstraint=eastwest;top=0;left=0;right=0;bottom=0;" vertex="1" parent="mkAhLoMsAeQ2sZZbWRm_-52">
          <mxGeometry y="69" width="280" height="22" as="geometry" />
        </mxCell>
        <mxCell id="mkAhLoMsAeQ2sZZbWRm_-60" value="Varchar" style="shape=partialRectangle;connectable=0;fillColor=none;top=0;left=0;bottom=0;right=0;align=left;spacingLeft=2;overflow=hidden;fontSize=11;" vertex="1" parent="mkAhLoMsAeQ2sZZbWRm_-59">
          <mxGeometry width="50" height="22" as="geometry">
            <mxRectangle width="50" height="22" as="alternateBounds" />
          </mxGeometry>
        </mxCell>
        <mxCell id="mkAhLoMsAeQ2sZZbWRm_-61" value="prestamo_externo_det " style="shape=partialRectangle;connectable=0;fillColor=none;top=0;left=0;bottom=0;right=0;align=left;spacingLeft=2;overflow=hidden;fontSize=11;" vertex="1" parent="mkAhLoMsAeQ2sZZbWRm_-59">
          <mxGeometry x="50" width="230" height="22" as="geometry">
            <mxRectangle width="230" height="22" as="alternateBounds" />
          </mxGeometry>
        </mxCell>
        <mxCell id="mkAhLoMsAeQ2sZZbWRm_-62" style="shape=tableRow;horizontal=0;startSize=0;swimlaneHead=0;swimlaneBody=0;fillColor=none;collapsible=0;dropTarget=0;points=[[0,0.5],[1,0.5]];portConstraint=eastwest;top=0;left=0;right=0;bottom=0;" vertex="1" parent="mkAhLoMsAeQ2sZZbWRm_-52">
          <mxGeometry y="91" width="280" height="22" as="geometry" />
        </mxCell>
        <mxCell id="mkAhLoMsAeQ2sZZbWRm_-63" value="Varchar" style="shape=partialRectangle;connectable=0;fillColor=none;top=0;left=0;bottom=0;right=0;align=left;spacingLeft=2;overflow=hidden;fontSize=11;" vertex="1" parent="mkAhLoMsAeQ2sZZbWRm_-62">
          <mxGeometry width="50" height="22" as="geometry">
            <mxRectangle width="50" height="22" as="alternateBounds" />
          </mxGeometry>
        </mxCell>
        <mxCell id="mkAhLoMsAeQ2sZZbWRm_-64" value="ultima_actualizacion_fecha" style="shape=partialRectangle;connectable=0;fillColor=none;top=0;left=0;bottom=0;right=0;align=left;spacingLeft=2;overflow=hidden;fontSize=11;" vertex="1" parent="mkAhLoMsAeQ2sZZbWRm_-62">
          <mxGeometry x="50" width="230" height="22" as="geometry">
            <mxRectangle width="230" height="22" as="alternateBounds" />
          </mxGeometry>
        </mxCell>
        <mxCell id="mkAhLoMsAeQ2sZZbWRm_-65" value="d_unidad_ejecutora " style="shape=table;startSize=25;container=1;collapsible=0;childLayout=tableLayout;fixedRows=1;rowLines=1;fontStyle=1;align=center;resizeLast=1;" vertex="1" parent="1">
          <mxGeometry x="560" y="79" width="280" height="69" as="geometry" />
        </mxCell>
        <mxCell id="mkAhLoMsAeQ2sZZbWRm_-66" style="shape=tableRow;horizontal=0;startSize=0;swimlaneHead=0;swimlaneBody=0;fillColor=none;collapsible=0;dropTarget=0;points=[[0,0.5],[1,0.5]];portConstraint=eastwest;top=0;left=0;right=0;bottom=0;" vertex="1" parent="mkAhLoMsAeQ2sZZbWRm_-65">
          <mxGeometry y="25" width="280" height="22" as="geometry" />
        </mxCell>
        <mxCell id="mkAhLoMsAeQ2sZZbWRm_-67" value="PK   " style="shape=partialRectangle;connectable=0;fillColor=none;top=0;left=0;bottom=0;right=0;align=left;spacingLeft=2;overflow=hidden;fontSize=11;" vertex="1" parent="mkAhLoMsAeQ2sZZbWRm_-66">
          <mxGeometry width="50" height="22" as="geometry">
            <mxRectangle width="50" height="22" as="alternateBounds" />
          </mxGeometry>
        </mxCell>
        <mxCell id="mkAhLoMsAeQ2sZZbWRm_-68" value="unidad_ejecutora_id " style="shape=partialRectangle;connectable=0;fillColor=none;top=0;left=0;bottom=0;right=0;align=left;spacingLeft=2;overflow=hidden;fontSize=11;" vertex="1" parent="mkAhLoMsAeQ2sZZbWRm_-66">
          <mxGeometry x="50" width="230" height="22" as="geometry">
            <mxRectangle width="230" height="22" as="alternateBounds" />
          </mxGeometry>
        </mxCell>
        <mxCell id="mkAhLoMsAeQ2sZZbWRm_-69" style="shape=tableRow;horizontal=0;startSize=0;swimlaneHead=0;swimlaneBody=0;fillColor=none;collapsible=0;dropTarget=0;points=[[0,0.5],[1,0.5]];portConstraint=eastwest;top=0;left=0;right=0;bottom=0;" vertex="1" parent="mkAhLoMsAeQ2sZZbWRm_-65">
          <mxGeometry y="47" width="280" height="22" as="geometry" />
        </mxCell>
        <mxCell id="mkAhLoMsAeQ2sZZbWRm_-70" value="Varchar" style="shape=partialRectangle;connectable=0;fillColor=none;top=0;left=0;bottom=0;right=0;align=left;spacingLeft=2;overflow=hidden;fontSize=11;" vertex="1" parent="mkAhLoMsAeQ2sZZbWRm_-69">
          <mxGeometry width="50" height="22" as="geometry">
            <mxRectangle width="50" height="22" as="alternateBounds" />
          </mxGeometry>
        </mxCell>
        <mxCell id="mkAhLoMsAeQ2sZZbWRm_-71" value="unidad_ejecutora_desc " style="shape=partialRectangle;connectable=0;fillColor=none;top=0;left=0;bottom=0;right=0;align=left;spacingLeft=2;overflow=hidden;fontSize=11;" vertex="1" parent="mkAhLoMsAeQ2sZZbWRm_-69">
          <mxGeometry x="50" width="230" height="22" as="geometry">
            <mxRectangle width="230" height="22" as="alternateBounds" />
          </mxGeometry>
        </mxCell>
        <mxCell id="mkAhLoMsAeQ2sZZbWRm_-81" value="serie_finfun_anual " style="shape=table;startSize=25;container=1;collapsible=0;childLayout=tableLayout;fixedRows=1;rowLines=1;fontStyle=1;align=center;resizeLast=1;" vertex="1" parent="1">
          <mxGeometry x="560" y="203" width="280" height="113" as="geometry" />
        </mxCell>
        <mxCell id="mkAhLoMsAeQ2sZZbWRm_-82" style="shape=tableRow;horizontal=0;startSize=0;swimlaneHead=0;swimlaneBody=0;fillColor=none;collapsible=0;dropTarget=0;points=[[0,0.5],[1,0.5]];portConstraint=eastwest;top=0;left=0;right=0;bottom=0;" vertex="1" parent="mkAhLoMsAeQ2sZZbWRm_-81">
          <mxGeometry y="25" width="280" height="22" as="geometry" />
        </mxCell>
        <mxCell id="mkAhLoMsAeQ2sZZbWRm_-83" value="PK   " style="shape=partialRectangle;connectable=0;fillColor=none;top=0;left=0;bottom=0;right=0;align=left;spacingLeft=2;overflow=hidden;fontSize=11;" vertex="1" parent="mkAhLoMsAeQ2sZZbWRm_-82">
          <mxGeometry width="50" height="22" as="geometry">
            <mxRectangle width="50" height="22" as="alternateBounds" />
          </mxGeometry>
        </mxCell>
        <mxCell id="mkAhLoMsAeQ2sZZbWRm_-84" value="id" style="shape=partialRectangle;connectable=0;fillColor=none;top=0;left=0;bottom=0;right=0;align=left;spacingLeft=2;overflow=hidden;fontSize=11;" vertex="1" parent="mkAhLoMsAeQ2sZZbWRm_-82">
          <mxGeometry x="50" width="230" height="22" as="geometry">
            <mxRectangle width="230" height="22" as="alternateBounds" />
          </mxGeometry>
        </mxCell>
        <mxCell id="mkAhLoMsAeQ2sZZbWRm_-85" style="shape=tableRow;horizontal=0;startSize=0;swimlaneHead=0;swimlaneBody=0;fillColor=none;collapsible=0;dropTarget=0;points=[[0,0.5],[1,0.5]];portConstraint=eastwest;top=0;left=0;right=0;bottom=0;" vertex="1" parent="mkAhLoMsAeQ2sZZbWRm_-81">
          <mxGeometry y="47" width="280" height="22" as="geometry" />
        </mxCell>
        <mxCell id="mkAhLoMsAeQ2sZZbWRm_-86" value="INT" style="shape=partialRectangle;connectable=0;fillColor=none;top=0;left=0;bottom=0;right=0;align=left;spacingLeft=2;overflow=hidden;fontSize=11;" vertex="1" parent="mkAhLoMsAeQ2sZZbWRm_-85">
          <mxGeometry width="50" height="22" as="geometry">
            <mxRectangle width="50" height="22" as="alternateBounds" />
          </mxGeometry>
        </mxCell>
        <mxCell id="mkAhLoMsAeQ2sZZbWRm_-87" value="ejercicio_presupuestario " style="shape=partialRectangle;connectable=0;fillColor=none;top=0;left=0;bottom=0;right=0;align=left;spacingLeft=2;overflow=hidden;fontSize=11;" vertex="1" parent="mkAhLoMsAeQ2sZZbWRm_-85">
          <mxGeometry x="50" width="230" height="22" as="geometry">
            <mxRectangle width="230" height="22" as="alternateBounds" />
          </mxGeometry>
        </mxCell>
        <mxCell id="mkAhLoMsAeQ2sZZbWRm_-88" style="shape=tableRow;horizontal=0;startSize=0;swimlaneHead=0;swimlaneBody=0;fillColor=none;collapsible=0;dropTarget=0;points=[[0,0.5],[1,0.5]];portConstraint=eastwest;top=0;left=0;right=0;bottom=0;" vertex="1" parent="mkAhLoMsAeQ2sZZbWRm_-81">
          <mxGeometry y="69" width="280" height="22" as="geometry" />
        </mxCell>
        <mxCell id="mkAhLoMsAeQ2sZZbWRm_-89" value="Decimal" style="shape=partialRectangle;connectable=0;fillColor=none;top=0;left=0;bottom=0;right=0;align=left;spacingLeft=2;overflow=hidden;fontSize=11;" vertex="1" parent="mkAhLoMsAeQ2sZZbWRm_-88">
          <mxGeometry width="50" height="22" as="geometry">
            <mxRectangle width="50" height="22" as="alternateBounds" />
          </mxGeometry>
        </mxCell>
        <mxCell id="mkAhLoMsAeQ2sZZbWRm_-90" value="pib" style="shape=partialRectangle;connectable=0;fillColor=none;top=0;left=0;bottom=0;right=0;align=left;spacingLeft=2;overflow=hidden;fontSize=11;" vertex="1" parent="mkAhLoMsAeQ2sZZbWRm_-88">
          <mxGeometry x="50" width="230" height="22" as="geometry">
            <mxRectangle width="230" height="22" as="alternateBounds" />
          </mxGeometry>
        </mxCell>
        <mxCell id="mkAhLoMsAeQ2sZZbWRm_-91" style="shape=tableRow;horizontal=0;startSize=0;swimlaneHead=0;swimlaneBody=0;fillColor=none;collapsible=0;dropTarget=0;points=[[0,0.5],[1,0.5]];portConstraint=eastwest;top=0;left=0;right=0;bottom=0;" vertex="1" parent="mkAhLoMsAeQ2sZZbWRm_-81">
          <mxGeometry y="91" width="280" height="22" as="geometry" />
        </mxCell>
        <mxCell id="mkAhLoMsAeQ2sZZbWRm_-92" value="Decimal " style="shape=partialRectangle;connectable=0;fillColor=none;top=0;left=0;bottom=0;right=0;align=left;spacingLeft=2;overflow=hidden;fontSize=11;" vertex="1" parent="mkAhLoMsAeQ2sZZbWRm_-91">
          <mxGeometry width="50" height="22" as="geometry">
            <mxRectangle width="50" height="22" as="alternateBounds" />
          </mxGeometry>
        </mxCell>
        <mxCell id="mkAhLoMsAeQ2sZZbWRm_-93" value="finalidad1_funcion1 a finalidad5_funcion1" style="shape=partialRectangle;connectable=0;fillColor=none;top=0;left=0;bottom=0;right=0;align=left;spacingLeft=2;overflow=hidden;fontSize=11;" vertex="1" parent="mkAhLoMsAeQ2sZZbWRm_-91">
          <mxGeometry x="50" width="230" height="22" as="geometry">
            <mxRectangle width="230" height="22" as="alternateBounds" />
          </mxGeometry>
        </mxCell>
        <mxCell id="mkAhLoMsAeQ2sZZbWRm_-94" value="serie_pib_anual " style="shape=table;startSize=25;container=1;collapsible=0;childLayout=tableLayout;fixedRows=1;rowLines=1;fontStyle=1;align=center;resizeLast=1;" vertex="1" parent="1">
          <mxGeometry x="110.13999999999999" y="330" width="280" height="135" as="geometry" />
        </mxCell>
        <mxCell id="mkAhLoMsAeQ2sZZbWRm_-95" style="shape=tableRow;horizontal=0;startSize=0;swimlaneHead=0;swimlaneBody=0;fillColor=none;collapsible=0;dropTarget=0;points=[[0,0.5],[1,0.5]];portConstraint=eastwest;top=0;left=0;right=0;bottom=0;" vertex="1" parent="mkAhLoMsAeQ2sZZbWRm_-94">
          <mxGeometry y="25" width="280" height="22" as="geometry" />
        </mxCell>
        <mxCell id="mkAhLoMsAeQ2sZZbWRm_-96" value="PK   " style="shape=partialRectangle;connectable=0;fillColor=none;top=0;left=0;bottom=0;right=0;align=left;spacingLeft=2;overflow=hidden;fontSize=11;" vertex="1" parent="mkAhLoMsAeQ2sZZbWRm_-95">
          <mxGeometry width="50" height="22" as="geometry">
            <mxRectangle width="50" height="22" as="alternateBounds" />
          </mxGeometry>
        </mxCell>
        <mxCell id="mkAhLoMsAeQ2sZZbWRm_-97" value="id " style="shape=partialRectangle;connectable=0;fillColor=none;top=0;left=0;bottom=0;right=0;align=left;spacingLeft=2;overflow=hidden;fontSize=11;" vertex="1" parent="mkAhLoMsAeQ2sZZbWRm_-95">
          <mxGeometry x="50" width="230" height="22" as="geometry">
            <mxRectangle width="230" height="22" as="alternateBounds" />
          </mxGeometry>
        </mxCell>
        <mxCell id="mkAhLoMsAeQ2sZZbWRm_-98" style="shape=tableRow;horizontal=0;startSize=0;swimlaneHead=0;swimlaneBody=0;fillColor=none;collapsible=0;dropTarget=0;points=[[0,0.5],[1,0.5]];portConstraint=eastwest;top=0;left=0;right=0;bottom=0;" vertex="1" parent="mkAhLoMsAeQ2sZZbWRm_-94">
          <mxGeometry y="47" width="280" height="22" as="geometry" />
        </mxCell>
        <mxCell id="mkAhLoMsAeQ2sZZbWRm_-99" value="INT" style="shape=partialRectangle;connectable=0;fillColor=none;top=0;left=0;bottom=0;right=0;align=left;spacingLeft=2;overflow=hidden;fontSize=11;" vertex="1" parent="mkAhLoMsAeQ2sZZbWRm_-98">
          <mxGeometry width="50" height="22" as="geometry">
            <mxRectangle width="50" height="22" as="alternateBounds" />
          </mxGeometry>
        </mxCell>
        <mxCell id="mkAhLoMsAeQ2sZZbWRm_-100" value="ejercicio_presupuestario " style="shape=partialRectangle;connectable=0;fillColor=none;top=0;left=0;bottom=0;right=0;align=left;spacingLeft=2;overflow=hidden;fontSize=11;" vertex="1" parent="mkAhLoMsAeQ2sZZbWRm_-98">
          <mxGeometry x="50" width="230" height="22" as="geometry">
            <mxRectangle width="230" height="22" as="alternateBounds" />
          </mxGeometry>
        </mxCell>
        <mxCell id="mkAhLoMsAeQ2sZZbWRm_-101" style="shape=tableRow;horizontal=0;startSize=0;swimlaneHead=0;swimlaneBody=0;fillColor=none;collapsible=0;dropTarget=0;points=[[0,0.5],[1,0.5]];portConstraint=eastwest;top=0;left=0;right=0;bottom=0;" vertex="1" parent="mkAhLoMsAeQ2sZZbWRm_-94">
          <mxGeometry y="69" width="280" height="22" as="geometry" />
        </mxCell>
        <mxCell id="mkAhLoMsAeQ2sZZbWRm_-102" value="Decimal" style="shape=partialRectangle;connectable=0;fillColor=none;top=0;left=0;bottom=0;right=0;align=left;spacingLeft=2;overflow=hidden;fontSize=11;" vertex="1" parent="mkAhLoMsAeQ2sZZbWRm_-101">
          <mxGeometry width="50" height="22" as="geometry">
            <mxRectangle width="50" height="22" as="alternateBounds" />
          </mxGeometry>
        </mxCell>
        <mxCell id="mkAhLoMsAeQ2sZZbWRm_-103" value="ingreso" style="shape=partialRectangle;connectable=0;fillColor=none;top=0;left=0;bottom=0;right=0;align=left;spacingLeft=2;overflow=hidden;fontSize=11;" vertex="1" parent="mkAhLoMsAeQ2sZZbWRm_-101">
          <mxGeometry x="50" width="230" height="22" as="geometry">
            <mxRectangle width="230" height="22" as="alternateBounds" />
          </mxGeometry>
        </mxCell>
        <mxCell id="mkAhLoMsAeQ2sZZbWRm_-104" style="shape=tableRow;horizontal=0;startSize=0;swimlaneHead=0;swimlaneBody=0;fillColor=none;collapsible=0;dropTarget=0;points=[[0,0.5],[1,0.5]];portConstraint=eastwest;top=0;left=0;right=0;bottom=0;" vertex="1" parent="mkAhLoMsAeQ2sZZbWRm_-94">
          <mxGeometry y="91" width="280" height="22" as="geometry" />
        </mxCell>
        <mxCell id="mkAhLoMsAeQ2sZZbWRm_-105" value="Decimal" style="shape=partialRectangle;connectable=0;fillColor=none;top=0;left=0;bottom=0;right=0;align=left;spacingLeft=2;overflow=hidden;fontSize=11;" vertex="1" parent="mkAhLoMsAeQ2sZZbWRm_-104">
          <mxGeometry width="50" height="22" as="geometry">
            <mxRectangle width="50" height="22" as="alternateBounds" />
          </mxGeometry>
        </mxCell>
        <mxCell id="mkAhLoMsAeQ2sZZbWRm_-106" value="gasto" style="shape=partialRectangle;connectable=0;fillColor=none;top=0;left=0;bottom=0;right=0;align=left;spacingLeft=2;overflow=hidden;fontSize=11;" vertex="1" parent="mkAhLoMsAeQ2sZZbWRm_-104">
          <mxGeometry x="50" width="230" height="22" as="geometry">
            <mxRectangle width="230" height="22" as="alternateBounds" />
          </mxGeometry>
        </mxCell>
        <mxCell id="mkAhLoMsAeQ2sZZbWRm_-107" style="shape=tableRow;horizontal=0;startSize=0;swimlaneHead=0;swimlaneBody=0;fillColor=none;collapsible=0;dropTarget=0;points=[[0,0.5],[1,0.5]];portConstraint=eastwest;top=0;left=0;right=0;bottom=0;" vertex="1" parent="mkAhLoMsAeQ2sZZbWRm_-94">
          <mxGeometry y="113" width="280" height="22" as="geometry" />
        </mxCell>
        <mxCell id="mkAhLoMsAeQ2sZZbWRm_-108" value="Decimal" style="shape=partialRectangle;connectable=0;fillColor=none;top=0;left=0;bottom=0;right=0;align=left;spacingLeft=2;overflow=hidden;fontSize=11;" vertex="1" parent="mkAhLoMsAeQ2sZZbWRm_-107">
          <mxGeometry width="50" height="22" as="geometry">
            <mxRectangle width="50" height="22" as="alternateBounds" />
          </mxGeometry>
        </mxCell>
        <mxCell id="mkAhLoMsAeQ2sZZbWRm_-109" value="pib" style="shape=partialRectangle;connectable=0;fillColor=none;top=0;left=0;bottom=0;right=0;align=left;spacingLeft=2;overflow=hidden;fontSize=11;" vertex="1" parent="mkAhLoMsAeQ2sZZbWRm_-107">
          <mxGeometry x="50" width="230" height="22" as="geometry">
            <mxRectangle width="230" height="22" as="alternateBounds" />
          </mxGeometry>
        </mxCell>
        <mxCell id="mkAhLoMsAeQ2sZZbWRm_-110" value="totales_de_presupuesto " style="shape=table;startSize=25;container=1;collapsible=0;childLayout=tableLayout;fixedRows=1;rowLines=1;fontStyle=1;align=center;resizeLast=1;" vertex="1" parent="1">
          <mxGeometry x="550" y="346" width="280" height="289" as="geometry" />
        </mxCell>
        <mxCell id="mkAhLoMsAeQ2sZZbWRm_-111" style="shape=tableRow;horizontal=0;startSize=0;swimlaneHead=0;swimlaneBody=0;fillColor=none;collapsible=0;dropTarget=0;points=[[0,0.5],[1,0.5]];portConstraint=eastwest;top=0;left=0;right=0;bottom=0;" vertex="1" parent="mkAhLoMsAeQ2sZZbWRm_-110">
          <mxGeometry y="25" width="280" height="22" as="geometry" />
        </mxCell>
        <mxCell id="mkAhLoMsAeQ2sZZbWRm_-112" value="PK   " style="shape=partialRectangle;connectable=0;fillColor=none;top=0;left=0;bottom=0;right=0;align=left;spacingLeft=2;overflow=hidden;fontSize=11;" vertex="1" parent="mkAhLoMsAeQ2sZZbWRm_-111">
          <mxGeometry width="50" height="22" as="geometry">
            <mxRectangle width="50" height="22" as="alternateBounds" />
          </mxGeometry>
        </mxCell>
        <mxCell id="mkAhLoMsAeQ2sZZbWRm_-113" value="id " style="shape=partialRectangle;connectable=0;fillColor=none;top=0;left=0;bottom=0;right=0;align=left;spacingLeft=2;overflow=hidden;fontSize=11;" vertex="1" parent="mkAhLoMsAeQ2sZZbWRm_-111">
          <mxGeometry x="50" width="230" height="22" as="geometry">
            <mxRectangle width="230" height="22" as="alternateBounds" />
          </mxGeometry>
        </mxCell>
        <mxCell id="mkAhLoMsAeQ2sZZbWRm_-114" style="shape=tableRow;horizontal=0;startSize=0;swimlaneHead=0;swimlaneBody=0;fillColor=none;collapsible=0;dropTarget=0;points=[[0,0.5],[1,0.5]];portConstraint=eastwest;top=0;left=0;right=0;bottom=0;" vertex="1" parent="mkAhLoMsAeQ2sZZbWRm_-110">
          <mxGeometry y="47" width="280" height="22" as="geometry" />
        </mxCell>
        <mxCell id="mkAhLoMsAeQ2sZZbWRm_-115" value="INT" style="shape=partialRectangle;connectable=0;fillColor=none;top=0;left=0;bottom=0;right=0;align=left;spacingLeft=2;overflow=hidden;fontSize=11;" vertex="1" parent="mkAhLoMsAeQ2sZZbWRm_-114">
          <mxGeometry width="50" height="22" as="geometry">
            <mxRectangle width="50" height="22" as="alternateBounds" />
          </mxGeometry>
        </mxCell>
        <mxCell id="mkAhLoMsAeQ2sZZbWRm_-116" value="ejercicio_presupuestario " style="shape=partialRectangle;connectable=0;fillColor=none;top=0;left=0;bottom=0;right=0;align=left;spacingLeft=2;overflow=hidden;fontSize=11;" vertex="1" parent="mkAhLoMsAeQ2sZZbWRm_-114">
          <mxGeometry x="50" width="230" height="22" as="geometry">
            <mxRectangle width="230" height="22" as="alternateBounds" />
          </mxGeometry>
        </mxCell>
        <mxCell id="mkAhLoMsAeQ2sZZbWRm_-117" style="shape=tableRow;horizontal=0;startSize=0;swimlaneHead=0;swimlaneBody=0;fillColor=none;collapsible=0;dropTarget=0;points=[[0,0.5],[1,0.5]];portConstraint=eastwest;top=0;left=0;right=0;bottom=0;" vertex="1" parent="mkAhLoMsAeQ2sZZbWRm_-110">
          <mxGeometry y="69" width="280" height="22" as="geometry" />
        </mxCell>
        <mxCell id="mkAhLoMsAeQ2sZZbWRm_-118" value="Decimal" style="shape=partialRectangle;connectable=0;fillColor=none;top=0;left=0;bottom=0;right=0;align=left;spacingLeft=2;overflow=hidden;fontSize=11;" vertex="1" parent="mkAhLoMsAeQ2sZZbWRm_-117">
          <mxGeometry width="50" height="22" as="geometry">
            <mxRectangle width="50" height="22" as="alternateBounds" />
          </mxGeometry>
        </mxCell>
        <mxCell id="mkAhLoMsAeQ2sZZbWRm_-119" value="credito_presupuestado " style="shape=partialRectangle;connectable=0;fillColor=none;top=0;left=0;bottom=0;right=0;align=left;spacingLeft=2;overflow=hidden;fontSize=11;" vertex="1" parent="mkAhLoMsAeQ2sZZbWRm_-117">
          <mxGeometry x="50" width="230" height="22" as="geometry">
            <mxRectangle width="230" height="22" as="alternateBounds" />
          </mxGeometry>
        </mxCell>
        <mxCell id="mkAhLoMsAeQ2sZZbWRm_-120" style="shape=tableRow;horizontal=0;startSize=0;swimlaneHead=0;swimlaneBody=0;fillColor=none;collapsible=0;dropTarget=0;points=[[0,0.5],[1,0.5]];portConstraint=eastwest;top=0;left=0;right=0;bottom=0;" vertex="1" parent="mkAhLoMsAeQ2sZZbWRm_-110">
          <mxGeometry y="91" width="280" height="22" as="geometry" />
        </mxCell>
        <mxCell id="mkAhLoMsAeQ2sZZbWRm_-121" value="Decimal" style="shape=partialRectangle;connectable=0;fillColor=none;top=0;left=0;bottom=0;right=0;align=left;spacingLeft=2;overflow=hidden;fontSize=11;" vertex="1" parent="mkAhLoMsAeQ2sZZbWRm_-120">
          <mxGeometry width="50" height="22" as="geometry">
            <mxRectangle width="50" height="22" as="alternateBounds" />
          </mxGeometry>
        </mxCell>
        <mxCell id="mkAhLoMsAeQ2sZZbWRm_-122" value="credito_vigente " style="shape=partialRectangle;connectable=0;fillColor=none;top=0;left=0;bottom=0;right=0;align=left;spacingLeft=2;overflow=hidden;fontSize=11;" vertex="1" parent="mkAhLoMsAeQ2sZZbWRm_-120">
          <mxGeometry x="50" width="230" height="22" as="geometry">
            <mxRectangle width="230" height="22" as="alternateBounds" />
          </mxGeometry>
        </mxCell>
        <mxCell id="mkAhLoMsAeQ2sZZbWRm_-123" style="shape=tableRow;horizontal=0;startSize=0;swimlaneHead=0;swimlaneBody=0;fillColor=none;collapsible=0;dropTarget=0;points=[[0,0.5],[1,0.5]];portConstraint=eastwest;top=0;left=0;right=0;bottom=0;" vertex="1" parent="mkAhLoMsAeQ2sZZbWRm_-110">
          <mxGeometry y="113" width="280" height="22" as="geometry" />
        </mxCell>
        <mxCell id="mkAhLoMsAeQ2sZZbWRm_-124" value="Decimal" style="shape=partialRectangle;connectable=0;fillColor=none;top=0;left=0;bottom=0;right=0;align=left;spacingLeft=2;overflow=hidden;fontSize=11;" vertex="1" parent="mkAhLoMsAeQ2sZZbWRm_-123">
          <mxGeometry width="50" height="22" as="geometry">
            <mxRectangle width="50" height="22" as="alternateBounds" />
          </mxGeometry>
        </mxCell>
        <mxCell id="mkAhLoMsAeQ2sZZbWRm_-125" value="credito_devengado " style="shape=partialRectangle;connectable=0;fillColor=none;top=0;left=0;bottom=0;right=0;align=left;spacingLeft=2;overflow=hidden;fontSize=11;" vertex="1" parent="mkAhLoMsAeQ2sZZbWRm_-123">
          <mxGeometry x="50" width="230" height="22" as="geometry">
            <mxRectangle width="230" height="22" as="alternateBounds" />
          </mxGeometry>
        </mxCell>
        <mxCell id="mkAhLoMsAeQ2sZZbWRm_-141" style="shape=tableRow;horizontal=0;startSize=0;swimlaneHead=0;swimlaneBody=0;fillColor=none;collapsible=0;dropTarget=0;points=[[0,0.5],[1,0.5]];portConstraint=eastwest;top=0;left=0;right=0;bottom=0;" vertex="1" parent="mkAhLoMsAeQ2sZZbWRm_-110">
          <mxGeometry y="135" width="280" height="22" as="geometry" />
        </mxCell>
        <mxCell id="mkAhLoMsAeQ2sZZbWRm_-142" value="Decimal" style="shape=partialRectangle;connectable=0;fillColor=none;top=0;left=0;bottom=0;right=0;align=left;spacingLeft=2;overflow=hidden;fontSize=11;" vertex="1" parent="mkAhLoMsAeQ2sZZbWRm_-141">
          <mxGeometry width="50" height="22" as="geometry">
            <mxRectangle width="50" height="22" as="alternateBounds" />
          </mxGeometry>
        </mxCell>
        <mxCell id="mkAhLoMsAeQ2sZZbWRm_-143" value="recurso_inicial " style="shape=partialRectangle;connectable=0;fillColor=none;top=0;left=0;bottom=0;right=0;align=left;spacingLeft=2;overflow=hidden;fontSize=11;" vertex="1" parent="mkAhLoMsAeQ2sZZbWRm_-141">
          <mxGeometry x="50" width="230" height="22" as="geometry">
            <mxRectangle width="230" height="22" as="alternateBounds" />
          </mxGeometry>
        </mxCell>
        <mxCell id="mkAhLoMsAeQ2sZZbWRm_-138" style="shape=tableRow;horizontal=0;startSize=0;swimlaneHead=0;swimlaneBody=0;fillColor=none;collapsible=0;dropTarget=0;points=[[0,0.5],[1,0.5]];portConstraint=eastwest;top=0;left=0;right=0;bottom=0;" vertex="1" parent="mkAhLoMsAeQ2sZZbWRm_-110">
          <mxGeometry y="157" width="280" height="22" as="geometry" />
        </mxCell>
        <mxCell id="mkAhLoMsAeQ2sZZbWRm_-139" value="Decimal" style="shape=partialRectangle;connectable=0;fillColor=none;top=0;left=0;bottom=0;right=0;align=left;spacingLeft=2;overflow=hidden;fontSize=11;" vertex="1" parent="mkAhLoMsAeQ2sZZbWRm_-138">
          <mxGeometry width="50" height="22" as="geometry">
            <mxRectangle width="50" height="22" as="alternateBounds" />
          </mxGeometry>
        </mxCell>
        <mxCell id="mkAhLoMsAeQ2sZZbWRm_-140" value="recurso_vigente " style="shape=partialRectangle;connectable=0;fillColor=none;top=0;left=0;bottom=0;right=0;align=left;spacingLeft=2;overflow=hidden;fontSize=11;" vertex="1" parent="mkAhLoMsAeQ2sZZbWRm_-138">
          <mxGeometry x="50" width="230" height="22" as="geometry">
            <mxRectangle width="230" height="22" as="alternateBounds" />
          </mxGeometry>
        </mxCell>
        <mxCell id="mkAhLoMsAeQ2sZZbWRm_-135" style="shape=tableRow;horizontal=0;startSize=0;swimlaneHead=0;swimlaneBody=0;fillColor=none;collapsible=0;dropTarget=0;points=[[0,0.5],[1,0.5]];portConstraint=eastwest;top=0;left=0;right=0;bottom=0;" vertex="1" parent="mkAhLoMsAeQ2sZZbWRm_-110">
          <mxGeometry y="179" width="280" height="22" as="geometry" />
        </mxCell>
        <mxCell id="mkAhLoMsAeQ2sZZbWRm_-136" value="Decimal" style="shape=partialRectangle;connectable=0;fillColor=none;top=0;left=0;bottom=0;right=0;align=left;spacingLeft=2;overflow=hidden;fontSize=11;" vertex="1" parent="mkAhLoMsAeQ2sZZbWRm_-135">
          <mxGeometry width="50" height="22" as="geometry">
            <mxRectangle width="50" height="22" as="alternateBounds" />
          </mxGeometry>
        </mxCell>
        <mxCell id="mkAhLoMsAeQ2sZZbWRm_-137" value="recurso_ingresado_percibido" style="shape=partialRectangle;connectable=0;fillColor=none;top=0;left=0;bottom=0;right=0;align=left;spacingLeft=2;overflow=hidden;fontSize=11;" vertex="1" parent="mkAhLoMsAeQ2sZZbWRm_-135">
          <mxGeometry x="50" width="230" height="22" as="geometry">
            <mxRectangle width="230" height="22" as="alternateBounds" />
          </mxGeometry>
        </mxCell>
        <mxCell id="mkAhLoMsAeQ2sZZbWRm_-132" style="shape=tableRow;horizontal=0;startSize=0;swimlaneHead=0;swimlaneBody=0;fillColor=none;collapsible=0;dropTarget=0;points=[[0,0.5],[1,0.5]];portConstraint=eastwest;top=0;left=0;right=0;bottom=0;" vertex="1" parent="mkAhLoMsAeQ2sZZbWRm_-110">
          <mxGeometry y="201" width="280" height="22" as="geometry" />
        </mxCell>
        <mxCell id="mkAhLoMsAeQ2sZZbWRm_-133" value="Decimal" style="shape=partialRectangle;connectable=0;fillColor=none;top=0;left=0;bottom=0;right=0;align=left;spacingLeft=2;overflow=hidden;fontSize=11;" vertex="1" parent="mkAhLoMsAeQ2sZZbWRm_-132">
          <mxGeometry width="50" height="22" as="geometry">
            <mxRectangle width="50" height="22" as="alternateBounds" />
          </mxGeometry>
        </mxCell>
        <mxCell id="mkAhLoMsAeQ2sZZbWRm_-134" value="gasto_primario_presupuestado " style="shape=partialRectangle;connectable=0;fillColor=none;top=0;left=0;bottom=0;right=0;align=left;spacingLeft=2;overflow=hidden;fontSize=11;" vertex="1" parent="mkAhLoMsAeQ2sZZbWRm_-132">
          <mxGeometry x="50" width="230" height="22" as="geometry">
            <mxRectangle width="230" height="22" as="alternateBounds" />
          </mxGeometry>
        </mxCell>
        <mxCell id="mkAhLoMsAeQ2sZZbWRm_-129" style="shape=tableRow;horizontal=0;startSize=0;swimlaneHead=0;swimlaneBody=0;fillColor=none;collapsible=0;dropTarget=0;points=[[0,0.5],[1,0.5]];portConstraint=eastwest;top=0;left=0;right=0;bottom=0;" vertex="1" parent="mkAhLoMsAeQ2sZZbWRm_-110">
          <mxGeometry y="223" width="280" height="22" as="geometry" />
        </mxCell>
        <mxCell id="mkAhLoMsAeQ2sZZbWRm_-130" value="Decimal" style="shape=partialRectangle;connectable=0;fillColor=none;top=0;left=0;bottom=0;right=0;align=left;spacingLeft=2;overflow=hidden;fontSize=11;" vertex="1" parent="mkAhLoMsAeQ2sZZbWRm_-129">
          <mxGeometry width="50" height="22" as="geometry">
            <mxRectangle width="50" height="22" as="alternateBounds" />
          </mxGeometry>
        </mxCell>
        <mxCell id="mkAhLoMsAeQ2sZZbWRm_-131" value="gasto_primario_vigente " style="shape=partialRectangle;connectable=0;fillColor=none;top=0;left=0;bottom=0;right=0;align=left;spacingLeft=2;overflow=hidden;fontSize=11;" vertex="1" parent="mkAhLoMsAeQ2sZZbWRm_-129">
          <mxGeometry x="50" width="230" height="22" as="geometry">
            <mxRectangle width="230" height="22" as="alternateBounds" />
          </mxGeometry>
        </mxCell>
        <mxCell id="mkAhLoMsAeQ2sZZbWRm_-126" style="shape=tableRow;horizontal=0;startSize=0;swimlaneHead=0;swimlaneBody=0;fillColor=none;collapsible=0;dropTarget=0;points=[[0,0.5],[1,0.5]];portConstraint=eastwest;top=0;left=0;right=0;bottom=0;" vertex="1" parent="mkAhLoMsAeQ2sZZbWRm_-110">
          <mxGeometry y="245" width="280" height="22" as="geometry" />
        </mxCell>
        <mxCell id="mkAhLoMsAeQ2sZZbWRm_-127" value="Decimal" style="shape=partialRectangle;connectable=0;fillColor=none;top=0;left=0;bottom=0;right=0;align=left;spacingLeft=2;overflow=hidden;fontSize=11;" vertex="1" parent="mkAhLoMsAeQ2sZZbWRm_-126">
          <mxGeometry width="50" height="22" as="geometry">
            <mxRectangle width="50" height="22" as="alternateBounds" />
          </mxGeometry>
        </mxCell>
        <mxCell id="mkAhLoMsAeQ2sZZbWRm_-128" value="gasto_primario_devengado " style="shape=partialRectangle;connectable=0;fillColor=none;top=0;left=0;bottom=0;right=0;align=left;spacingLeft=2;overflow=hidden;fontSize=11;" vertex="1" parent="mkAhLoMsAeQ2sZZbWRm_-126">
          <mxGeometry x="50" width="230" height="22" as="geometry">
            <mxRectangle width="230" height="22" as="alternateBounds" />
          </mxGeometry>
        </mxCell>
        <mxCell id="mkAhLoMsAeQ2sZZbWRm_-147" style="shape=tableRow;horizontal=0;startSize=0;swimlaneHead=0;swimlaneBody=0;fillColor=none;collapsible=0;dropTarget=0;points=[[0,0.5],[1,0.5]];portConstraint=eastwest;top=0;left=0;right=0;bottom=0;" vertex="1" parent="mkAhLoMsAeQ2sZZbWRm_-110">
          <mxGeometry y="267" width="280" height="22" as="geometry" />
        </mxCell>
        <mxCell id="mkAhLoMsAeQ2sZZbWRm_-148" value="Varchar" style="shape=partialRectangle;connectable=0;fillColor=none;top=0;left=0;bottom=0;right=0;align=left;spacingLeft=2;overflow=hidden;fontSize=11;" vertex="1" parent="mkAhLoMsAeQ2sZZbWRm_-147">
          <mxGeometry width="50" height="22" as="geometry">
            <mxRectangle width="50" height="22" as="alternateBounds" />
          </mxGeometry>
        </mxCell>
        <mxCell id="mkAhLoMsAeQ2sZZbWRm_-149" value="ultima_actualizacion_fecha " style="shape=partialRectangle;connectable=0;fillColor=none;top=0;left=0;bottom=0;right=0;align=left;spacingLeft=2;overflow=hidden;fontSize=11;" vertex="1" parent="mkAhLoMsAeQ2sZZbWRm_-147">
          <mxGeometry x="50" width="230" height="22" as="geometry">
            <mxRectangle width="230" height="22" as="alternateBounds" />
          </mxGeometry>
        </mxCell>
      </root>
    </mxGraphModel>
  </diagram>
</mxfile>
